<svg xmlns="http://www.w3.org/2000/svg" version="1.1" xmlns:xlink="http://www.w3.org/1999/xlink" xmlns:svgjs="http://svgjs.dev/svgjs" width="500" height="500"><svg xmlns="http://www.w3.org/2000/svg" viewBox="0 0 500 500">
  <defs>
    <clipPath id="SvgjsClipPath1079" clipPathUnits="userSpaceOnUse">
      <path d="M0 595.275h841.89V0H0v595.275z"></path>
    </clipPath>
    <clipPath id="SvgjsClipPath1078" clipPathUnits="userSpaceOnUse">
      <path d="M290.118 321.389h260.888v-197.5H290.118v197.5z"></path>
    </clipPath>
    <clipPath id="SvgjsClipPath1077" clipPathUnits="userSpaceOnUse">
      <path d="M327.29 485.137h190.669v-125H327.29v125z"></path>
    </clipPath>
    <linearGradient id="SvgjsLinearGradient1076" x1="0" x2="1" y1="0" y2="0" gradientTransform="scale(328.55276 -328.55276) rotate(37.498 1.878 .84)" gradientUnits="userSpaceOnUse" spreadMethod="pad">
      <stop offset="0" stop-color="#fff"></stop>
      <stop offset="1" stop-color="#231f20"></stop>
    </linearGradient>
    <linearGradient id="SvgjsLinearGradient1075" x1="0" x2="1" y1="0" y2="0" gradientTransform="scale(-204.40158 204.40158) rotate(36.646 -3.881 -2.976)" gradientUnits="userSpaceOnUse" spreadMethod="pad">
      <stop offset="0" stop-color="#fff"></stop>
      <stop offset="1" stop-color="#231f20"></stop>
    </linearGradient>
  </defs>
  <g clip-path="url(#a)" transform="matrix(1.18671 0 0 -1.18671 -249.539 603.21)">
    <path fill="#49738f" d="M510.28 360.951c-.07-.027-.142-.05-.212-.077.07.026.141.05.211.077m-1.256-.404c-.107-.028-.213-.058-.322-.083.11.026.215.054.322.083m-1.339-.272c-.115-.017-.23-.04-.35-.054.12.014.233.037.35.054m-216.838 2.07h41.523c-3.07 2.173-5.08 5.745-5.08 9.792v113h-10.775v-2.392h-30.736l-5.63-6h-2.2l-.102-103.4c0-6.627 6.373-11 13-11m221.177-.551a13.736 13.736 0 0 0-.555-.31l.008.003c.328.049.654.108.975.182.633.373 1.23.799 1.783 1.278-.336-.29-.684-.566-1.049-.818a11.913 11.913 0 0 0-1.162-.335m4.225 4.191c.035.06.074.118.107.178-.033-.06-.072-.118-.107-.178m1.549 4.272c.02.137.045.27.063.41-.018-.14-.042-.274-.063-.41m-2.371-5.475.082.108a10.136 10.136 0 0 0-.082-.108m-2.976-3.114"></path>
    <path fill="#3d6077" d="M275.513 372.012c0-6.627 5.373-12 12-12h218.874a12.336 12.336 0 0 1 1.39.087 11.734 11.734 0 0 1 1.926.388c.182.052.362.108.538.169.1.034.2.073.3.11.414.154.82.327 1.21.524l.023.01a12.564 12.564 0 0 1 .677.369 12.11 12.11 0 0 0-.974-.181l-.008-.004c-.385-.2-.783-.375-1.19-.533l-.21-.076a11.953 11.953 0 0 0-2.385-.6c-.117-.017-.231-.04-.35-.054a12.23 12.23 0 0 0-1.375-.084h-166.67c-2.58 0-4.963.822-6.92 2.208h-41.523c-6.627 0-13 4.373-13 11l.102 103.4h-2.332l-.103-104.733z"></path>
    <path fill="#272324" d="M517.86 370.666c-.019-.138-.042-.273-.064-.41a11.35 11.35 0 0 0-.22-1.074c-.03-.12-.059-.243-.092-.363-.27-.938-.65-1.827-1.129-2.656-.033-.06-.072-.119-.107-.179a12.584 12.584 0 0 0-.823-1.203 12.053 12.053 0 0 0-3.402-2.988 12.2 12.2 0 0 1 1.162.335c.365.252.713.528 1.05.818.065.058.13.12.196.18.268.242.524.495.768.76.07.077.142.154.211.233.246.28.476.571.695.873.045.061.092.12.137.182.26.374.502.763.72 1.166l.01.024c.203.38.381.772.543 1.173.05.12.09.244.133.366a12.124 12.124 0 0 1 .408 1.354c.073.31.131.626.18.944.02.14.047.278.062.42.053.456.088.92.088 1.39l-.396 104.596-.03 8.53v-113c0-.5-.042-.988-.1-1.47"></path>
    <path fill="#5191bd" d="M591.297 139.281h-18v14.664h18v-14.664zm-323.38 0h-18v14.666h18v-14.666zm-9.552 321.84 7.774-18.362-3.598.737v-10.722h-8.35v10.722l-3.597-.737 7.771 18.362zm315.104 24.016h-14.301v-2.53h-30.736l-5.629-6h-4.813l.397-104.595c0-.471-.035-.934-.088-1.391-.016-.142-.043-.28-.063-.419a12.189 12.189 0 0 0-.179-.944c-.036-.149-.075-.296-.114-.443a11.824 11.824 0 0 0-.295-.912c-.043-.122-.084-.245-.132-.365-.162-.402-.34-.795-.543-1.174-.004-.007-.006-.015-.012-.023a12.095 12.095 0 0 0-.719-1.167c-.045-.062-.092-.12-.137-.182a11.663 11.663 0 0 0-.695-.873c-.068-.079-.14-.156-.211-.233-.244-.265-.5-.517-.767-.759-.067-.06-.131-.122-.198-.18a12.055 12.055 0 0 0-1.783-1.278l-.002-.001c-.22-.13-.445-.252-.676-.368-.005-.004-.013-.007-.021-.01a11.921 11.921 0 0 0-1.211-.524c-.1-.037-.199-.076-.301-.11-.177-.06-.355-.117-.537-.17a13.08 13.08 0 0 0-1.099-.261 11.674 11.674 0 0 0-1.143-.159 12.356 12.356 0 0 0-1.074-.054H287.513c-6.627 0-12 5.373-12 12l.102 104.733h.447l.007 8.392h-22.125c-6.627 0-12-5.373-12-12V122.139c0-6.627 5.373-12 12-12h21.68v213c0 6.627 5.371 12 12 12H553.5c6.627 0 12-5.373 12-12v-213h22.445c6.627 0 12 5.373 12 12v335.089l-26.476 27.909z"></path>
    <path fill="#a7a5a6" d="M582.297 139.8c.074 0 .148.01.223.013a6.808 6.808 0 0 0-6.59 6.802c0 3.687 2.93 6.68 6.59 6.799-.075.003-.15.012-.223.012a6.812 6.812 0 1 1 0-13.625"></path>
    <path fill="#497390" d="M488.125 468.137h-48.502v-97.5h48.502v97.5zm62.881-333.447c0-5.965-4.834-10.801-10.801-10.801H300.918c-5.965 0-10.8 4.836-10.8 10.8v175.9c0 5.964 4.834 10.8 10.8 10.8h239.287c5.965 0 10.8-4.837 10.8-10.8v-175.9zm2.494 200.449H287.624c-6.63 0-12-5.373-12-12v-213H565.5v213c0 6.627-5.373 12-12 12m28.797-181.713c.074 0 .148-.01.223-.012 3.658-.118 6.59-3.112 6.59-6.8a6.81 6.81 0 0 0-6.59-6.801c-.075-.003-.15-.012-.223-.012a6.812 6.812 0 1 0 0 13.625m-9-14.145h18v14.664h-18V139.28zM254.191 432.774h8.35v10.722l3.597-.738-7.773 18.363-7.772-18.363 3.598.738v-10.722z"></path>
    <path fill="#f4f4f4" d="M533.949 301.326H307.175v1h226.774v-1zm0-22.625H307.175v1h226.774v-1zm0-22.625H307.175v1h226.774v-1zm0-22.625H307.175v1h226.774v-1zm0-22.625H307.175v1h226.774v-1zm0-22.625H307.175v1h226.774v-1zm0-22.625H307.175v1h226.774v-1zm0-22.625H307.175v1h226.774v-1zm6.256 178.438H300.918c-5.966 0-10.8-4.836-10.8-10.799V134.689c0-5.964 4.835-10.8 10.8-10.8h239.287c5.967 0 10.801 4.836 10.801 10.8V310.59c0 5.963-4.836 10.799-10.801 10.799"></path>
    <g clip-path="url(#b)" opacity=".15">
      <path fill="url(#c)" d="M533.949 301.326H307.175v1h226.774v-1zm0-22.625H307.175v1h226.774v-1zm0-22.625H307.175v1h226.774v-1zm0-22.625H307.175v1h226.774v-1zm0-22.625H307.175v1h226.774v-1zm0-22.625H307.175v1h226.774v-1zm0-22.625H307.175v1h226.774v-1zm0-22.625H307.175v1h226.774v-1zm6.256 178.438H300.918c-5.966 0-10.8-4.836-10.8-10.799V134.689c0-5.964 4.835-10.8 10.8-10.8h239.287c5.967 0 10.801 4.836 10.801 10.8V310.59c0 5.963-4.836 10.799-10.801 10.799"></path>
    </g>
    <path fill="#918f90" d="M307.175 301.326h226.774v1H307.175v-1zm0-22.625h226.774v1H307.175v-1zm0-22.625h226.774v1H307.175v-1zm0-22.625h226.774v1H307.175v-1zm0-22.625h226.774v1H307.175v-1zm0-22.625h226.774v1H307.175v-1zm0-22.625h226.774v1H307.175v-1zm0-22.625h226.774v1H307.175v-1z"></path>
    <path fill="#e9e9e9" d="M439.623 468.137h48.502v-97.5h-48.502v97.5zM332.369 362.345a11.931 11.931 0 0 1 6.921-2.208h166.669c.465 0 .924.033 1.375.084.119.014.234.037.35.054.345.05.683.111 1.017.189.11.025.215.055.322.083.356.094.704.203 1.045.328.071.025.141.049.211.076.407.158.805.333 1.19.533.187.098.371.203.554.31a12.042 12.042 0 0 1 3.403 2.988l.082.108c.265.35.512.715.74 1.095.035.06.074.118.107.178.479.829.86 1.718 1.129 2.657.034.119.063.242.092.363.09.352.164.71.221 1.074.021.136.045.271.062.41.059.482.1.971.1 1.47v113H327.29v-113c0-4.048 2.01-7.619 5.079-9.792"></path>
    <g clip-path="url(#d)" opacity=".3">
      <path fill="url(#e)" d="M439.623 468.137h48.502v-97.5h-48.502v97.5zM332.369 362.345a11.931 11.931 0 0 1 6.921-2.208h166.669c.465 0 .924.033 1.375.084.119.014.234.037.35.054.345.05.683.111 1.017.189.11.025.215.055.322.083.356.094.704.203 1.045.328.071.025.141.049.211.076.407.158.805.333 1.19.533.187.098.371.203.554.31a12.042 12.042 0 0 1 3.403 2.988l.082.108c.265.35.512.715.74 1.095.035.06.074.118.107.178.479.829.86 1.718 1.129 2.657.034.119.063.242.092.363.09.352.164.71.221 1.074.021.136.045.271.062.41.059.482.1.971.1 1.47v113H327.29v-113c0-4.048 2.01-7.619 5.079-9.792"></path>
    </g>
  </g>
</svg><style>@media (prefers-color-scheme: light) { :root { filter: none; } }
@media (prefers-color-scheme: dark) { :root { filter: none; } }
</style></svg>